<svg width="16" height="16" viewBox="0 0 16 16" fill="none" xmlns="http://www.w3.org/2000/svg">
<path fill-rule="evenodd" clip-rule="evenodd" d="M13.5994 6.09733L14.0795 6.57733C14.4597 6.95066 14.6664 7.45733 14.6664 7.99066C14.6731 8.52399 14.4664 9.03133 14.0929 9.41066C14.0884 9.41554 14.084 9.41984 14.0796 9.42413C14.0773 9.42628 14.0751 9.42843 14.0729 9.43066L13.5994 9.90399C13.4126 10.0907 13.3059 10.344 13.3059 10.6113V11.2973C13.3059 12.404 12.4056 13.3047 11.2985 13.3047H10.6116C10.3449 13.3047 10.0914 13.4107 9.9047 13.5973L9.42453 14.0773C9.03105 14.4713 8.51753 14.664 8.00401 14.664C7.49049 14.664 6.97697 14.4713 6.5835 14.0847L6.09666 13.5973C5.90992 13.4107 5.6565 13.3047 5.38973 13.3047H4.70282C3.59575 13.3047 2.69542 12.404 2.69542 11.2973V10.6113C2.69542 10.344 2.58872 10.0907 2.40198 9.89733L1.92181 9.42399C1.14153 8.64466 1.13486 7.37066 1.91514 6.58466L2.40198 6.09733C2.58872 5.91066 2.69542 5.65733 2.69542 5.38399V4.70399C2.69542 3.59733 3.59575 2.69799 4.70282 2.69799H5.38973C5.6565 2.69799 5.90992 2.59066 6.09666 2.40399L6.57683 1.92399C7.35711 1.13799 8.63091 1.13799 9.41786 1.91799L9.9047 2.40399C10.0914 2.59066 10.3449 2.69799 10.6116 2.69799H11.2985C12.4056 2.69799 13.3059 3.59733 13.3059 4.70399V5.39133C13.3059 5.65733 13.4126 5.91066 13.5994 6.09733ZM7.42706 9.40189C7.52639 9.49733 7.65526 9.5444 7.78412 9.54309C7.91298 9.54244 8.04117 9.49406 8.13916 9.39731L10.7386 6.83466C10.9339 6.64181 10.9319 6.33194 10.7345 6.1417C10.5365 5.95147 10.2177 5.95277 10.0224 6.14563L7.77674 8.35918L6.85725 7.47533C6.65926 7.28509 6.34113 7.28705 6.14515 7.4799C5.94984 7.67275 5.95186 7.98263 6.14985 8.17286L7.42706 9.40189Z" fill="white"/>
</svg>
