<svg width="36" height="36" viewBox="0 0 36 36" fill="none" xmlns="http://www.w3.org/2000/svg">
<path d="M16.6085 21.8274H11.3579" stroke="white" stroke-linecap="round" stroke-linejoin="round"/>
<path d="M18.9504 13.7503H24.201" stroke="white" stroke-linecap="round" stroke-linejoin="round"/>
<path fill-rule="evenodd" clip-rule="evenodd" d="M15.2719 13.7052C15.2719 12.6255 14.3901 11.75 13.3026 11.75C12.2151 11.75 11.3333 12.6255 11.3333 13.7052C11.3333 14.7849 12.2151 15.6604 13.3026 15.6604C14.3901 15.6604 15.2719 14.7849 15.2719 13.7052Z" stroke="white" stroke-linecap="round" stroke-linejoin="round"/>
<path fill-rule="evenodd" clip-rule="evenodd" d="M24.6667 21.7948C24.6667 20.7151 23.7855 19.8396 22.6981 19.8396C21.6099 19.8396 20.7281 20.7151 20.7281 21.7948C20.7281 22.8745 21.6099 23.75 22.6981 23.75C23.7855 23.75 24.6667 22.8745 24.6667 21.7948Z" stroke="white" stroke-linecap="round" stroke-linejoin="round"/>
</svg>
